<svg id="visual" viewBox="0 0 960 40" width="960" height="40" xmlns="http://www.w3.org/2000/svg" xmlns:xlink="http://www.w3.org/1999/xlink" version="1.1"><path d="M0 18L7 18C14 18 28 18 41.8 18C55.7 18 69.3 18 83.2 20.3C97 22.7 111 27.3 125 24.3C139 21.3 153 10.7 167 8.5C181 6.3 195 12.7 208.8 14.2C222.7 15.7 236.3 12.3 250.2 12C264 11.7 278 14.3 292 18C306 21.7 320 26.3 334 25.3C348 24.3 362 17.7 375.8 16.2C389.7 14.7 403.3 18.3 417.2 21C431 23.7 445 25.3 459 25.5C473 25.7 487 24.3 501 24.5C515 24.7 529 26.3 542.8 24.3C556.7 22.3 570.3 16.7 584.2 17C598 17.3 612 23.7 626 25.7C640 27.7 654 25.3 668 21C682 16.7 696 10.3 709.8 6.5C723.7 2.7 737.3 1.3 751.2 0.7C765 0 779 0 793 4.5C807 9 821 18 835 23.5C849 29 863 31 876.8 29.8C890.7 28.7 904.3 24.3 918.2 20.7C932 17 946 14 953 12.5L960 11L960 0L953 0C946 0 932 0 918.2 0C904.3 0 890.7 0 876.8 0C863 0 849 0 835 0C821 0 807 0 793 0C779 0 765 0 751.2 0C737.3 0 723.7 0 709.8 0C696 0 682 0 668 0C654 0 640 0 626 0C612 0 598 0 584.2 0C570.3 0 556.7 0 542.8 0C529 0 515 0 501 0C487 0 473 0 459 0C445 0 431 0 417.2 0C403.3 0 389.7 0 375.8 0C362 0 348 0 334 0C320 0 306 0 292 0C278 0 264 0 250.2 0C236.3 0 222.7 0 208.8 0C195 0 181 0 167 0C153 0 139 0 125 0C111 0 97 0 83.2 0C69.3 0 55.7 0 41.8 0C28 0 14 0 7 0L0 0Z" fill="#868e96"></path></svg>