<svg id="visual" viewBox="0 0 960 140" width="960" height="140" xmlns="http://www.w3.org/2000/svg" xmlns:xlink="http://www.w3.org/1999/xlink" version="1.1">
    <rect x="0" y="0" width="960" height="140" fill="#4FACF7"></rect>
    <path d="M0 30L8.5 26.3C17 22.7 34 15.3 50.8 28.8C67.7 42.3 84.3 76.7 101.2 86.5C118 96.3 135 81.7 151.8 66.3C168.7 51 185.3 35 202.2 35.5C219 36 236 53 252.8 51.3C269.7 49.7 286.3 29.3 303.2 26.5C320 23.7 337 38.3 353.8 50.2C370.7 62 387.3 71 404.2 80.3C421 89.7 438 99.3 454.8 97.7C471.7 96 488.3 83 505.2 77.5C522 72 539 74 555.8 68C572.7 62 589.3 48 606.2 37.3C623 26.7 640 19.3 656.8 14.7C673.7 10 690.3 8 707.2 23.3C724 38.7 741 71.3 757.8 84.8C774.7 98.3 791.3 92.7 808.2 80.7C825 68.7 842 50.3 858.8 43.2C875.7 36 892.3 40 909.2 39C926 38 943 32 951.5 29L960 26L960 141L951.5 141C943 141 926 141 909.2 141C892.3 141 875.7 141 858.8 141C842 141 825 141 808.2 141C791.3 141 774.7 141 757.8 141C741 141 724 141 707.2 141C690.3 141 673.7 141 656.8 141C640 141 623 141 606.2 141C589.3 141 572.7 141 555.8 141C539 141 522 141 505.2 141C488.3 141 471.7 141 454.8 141C438 141 421 141 404.2 141C387.3 141 370.7 141 353.8 141C337 141 320 141 303.2 141C286.3 141 269.7 141 252.8 141C236 141 219 141 202.2 141C185.3 141 168.7 141 151.8 141C135 141 118 141 101.2 141C84.3 141 67.7 141 50.8 141C34 141 17 141 8.5 141L0 141Z" fill="#4facf7"></path>
    <path d="M0 79L8.5 72.5C17 66 34 53 50.8 59C67.7 65 84.3 90 101.2 101.8C118 113.7 135 112.3 151.8 109.5C168.7 106.7 185.3 102.3 202.2 95C219 87.7 236 77.3 252.8 79.2C269.7 81 286.3 95 303.2 89.8C320 84.7 337 60.3 353.8 53C370.7 45.7 387.3 55.3 404.2 68.7C421 82 438 99 454.8 100C471.7 101 488.3 86 505.2 73.5C522 61 539 51 555.8 46.8C572.7 42.7 589.3 44.3 606.2 46.7C623 49 640 52 656.8 57.5C673.7 63 690.3 71 707.2 80.7C724 90.3 741 101.7 757.8 96.7C774.7 91.7 791.3 70.3 808.2 69.2C825 68 842 87 858.8 84.3C875.7 81.7 892.3 57.3 909.2 55.2C926 53 943 73 951.5 83L960 93L960 141L951.5 141C943 141 926 141 909.2 141C892.3 141 875.7 141 858.8 141C842 141 825 141 808.2 141C791.3 141 774.7 141 757.8 141C741 141 724 141 707.2 141C690.3 141 673.7 141 656.8 141C640 141 623 141 606.2 141C589.3 141 572.7 141 555.8 141C539 141 522 141 505.2 141C488.3 141 471.7 141 454.8 141C438 141 421 141 404.2 141C387.3 141 370.7 141 353.8 141C337 141 320 141 303.2 141C286.3 141 269.7 141 252.8 141C236 141 219 141 202.2 141C185.3 141 168.7 141 151.8 141C135 141 118 141 101.2 141C84.3 141 67.7 141 50.8 141C34 141 17 141 8.5 141L0 141Z" fill="#7497ee"></path>
    <path d="M0 84L8.5 81.8C17 79.7 34 75.3 50.8 76.2C67.7 77 84.3 83 101.2 80.7C118 78.3 135 67.7 151.8 65.2C168.7 62.7 185.3 68.3 202.2 78.5C219 88.7 236 103.3 252.8 109.7C269.7 116 286.3 114 303.2 113.8C320 113.7 337 115.3 353.8 109.7C370.7 104 387.3 91 404.2 81.7C421 72.3 438 66.7 454.8 62.5C471.7 58.3 488.3 55.7 505.2 61C522 66.3 539 79.7 555.8 83.8C572.7 88 589.3 83 606.2 86.8C623 90.7 640 103.3 656.8 105C673.7 106.7 690.3 97.3 707.2 92.2C724 87 741 86 757.8 82C774.7 78 791.3 71 808.2 75.8C825 80.7 842 97.3 858.8 105C875.7 112.7 892.3 111.3 909.2 108.3C926 105.3 943 100.7 951.5 98.3L960 96L960 141L951.5 141C943 141 926 141 909.2 141C892.3 141 875.7 141 858.8 141C842 141 825 141 808.2 141C791.3 141 774.7 141 757.8 141C741 141 724 141 707.2 141C690.3 141 673.7 141 656.8 141C640 141 623 141 606.2 141C589.3 141 572.7 141 555.8 141C539 141 522 141 505.2 141C488.3 141 471.7 141 454.8 141C438 141 421 141 404.2 141C387.3 141 370.7 141 353.8 141C337 141 320 141 303.2 141C286.3 141 269.7 141 252.8 141C236 141 219 141 202.2 141C185.3 141 168.7 141 151.8 141C135 141 118 141 101.2 141C84.3 141 67.7 141 50.8 141C34 141 17 141 8.5 141L0 141Z" fill="#967edb"></path>
    <path d="M0 85L8.5 90.7C17 96.3 34 107.7 50.8 110.5C67.7 113.3 84.3 107.7 101.2 105.3C118 103 135 104 151.8 106.3C168.7 108.7 185.3 112.3 202.2 105.3C219 98.3 236 80.7 252.8 72.8C269.7 65 286.3 67 303.2 71.8C320 76.7 337 84.3 353.8 84.5C370.7 84.7 387.3 77.3 404.2 78.3C421 79.3 438 88.7 454.8 93.8C471.7 99 488.3 100 505.2 96.8C522 93.7 539 86.3 555.8 84.5C572.7 82.7 589.3 86.3 606.2 90.7C623 95 640 100 656.8 102.2C673.7 104.3 690.3 103.7 707.2 102.7C724 101.7 741 100.3 757.8 102.5C774.7 104.7 791.3 110.3 808.2 105.5C825 100.7 842 85.3 858.8 85.8C875.7 86.3 892.3 102.7 909.2 101.7C926 100.7 943 82.3 951.5 73.2L960 64L960 141L951.5 141C943 141 926 141 909.2 141C892.3 141 875.7 141 858.8 141C842 141 825 141 808.2 141C791.3 141 774.7 141 757.8 141C741 141 724 141 707.2 141C690.3 141 673.7 141 656.8 141C640 141 623 141 606.2 141C589.3 141 572.7 141 555.8 141C539 141 522 141 505.2 141C488.3 141 471.7 141 454.8 141C438 141 421 141 404.2 141C387.3 141 370.7 141 353.8 141C337 141 320 141 303.2 141C286.3 141 269.7 141 252.8 141C236 141 219 141 202.2 141C185.3 141 168.7 141 151.8 141C135 141 118 141 101.2 141C84.3 141 67.7 141 50.8 141C34 141 17 141 8.5 141L0 141Z" fill="#b163bd"></path>
    <path d="M0 98L8.5 103.3C17 108.7 34 119.3 50.8 120.2C67.7 121 84.3 112 101.2 105.2C118 98.3 135 93.7 151.8 94.5C168.7 95.3 185.3 101.7 202.2 105.3C219 109 236 110 252.8 108.8C269.7 107.7 286.3 104.3 303.2 106.5C320 108.7 337 116.3 353.8 121.5C370.7 126.7 387.3 129.3 404.2 123.7C421 118 438 104 454.8 102.3C471.7 100.7 488.3 111.3 505.2 110.7C522 110 539 98 555.8 95.5C572.7 93 589.3 100 606.2 103C623 106 640 105 656.8 106.7C673.7 108.3 690.3 112.7 707.2 109.3C724 106 741 95 757.8 91.5C774.7 88 791.3 92 808.2 92.5C825 93 842 90 858.8 96C875.7 102 892.3 117 909.2 119.8C926 122.7 943 113.3 951.5 108.7L960 104L960 141L951.5 141C943 141 926 141 909.2 141C892.3 141 875.7 141 858.8 141C842 141 825 141 808.2 141C791.3 141 774.7 141 757.8 141C741 141 724 141 707.2 141C690.3 141 673.7 141 656.8 141C640 141 623 141 606.2 141C589.3 141 572.7 141 555.8 141C539 141 522 141 505.2 141C488.3 141 471.7 141 454.8 141C438 141 421 141 404.2 141C387.3 141 370.7 141 353.8 141C337 141 320 141 303.2 141C286.3 141 269.7 141 252.8 141C236 141 219 141 202.2 141C185.3 141 168.7 141 151.8 141C135 141 118 141 101.2 141C84.3 141 67.7 141 50.8 141C34 141 17 141 8.5 141L0 141Z" fill="#c24495"></path>
    <path d="M0 132L8.5 132.5C17 133 34 134 50.8 129.3C67.7 124.7 84.3 114.3 101.2 110.7C118 107 135 110 151.8 112.7C168.7 115.3 185.3 117.7 202.2 120.8C219 124 236 128 252.8 125.8C269.7 123.7 286.3 115.3 303.2 115.7C320 116 337 125 353.8 126.8C370.7 128.7 387.3 123.3 404.2 118.5C421 113.7 438 109.3 454.8 110.3C471.7 111.3 488.3 117.7 505.2 120C522 122.3 539 120.7 555.8 117.3C572.7 114 589.3 109 606.2 108.7C623 108.3 640 112.7 656.8 114C673.7 115.3 690.3 113.7 707.2 113.7C724 113.7 741 115.3 757.8 115.7C774.7 116 791.3 115 808.2 115C825 115 842 116 858.8 114.3C875.7 112.7 892.3 108.3 909.2 111C926 113.7 943 123.3 951.5 128.2L960 133L960 141L951.5 141C943 141 926 141 909.2 141C892.3 141 875.7 141 858.8 141C842 141 825 141 808.2 141C791.3 141 774.7 141 757.8 141C741 141 724 141 707.2 141C690.3 141 673.7 141 656.8 141C640 141 623 141 606.2 141C589.3 141 572.7 141 555.8 141C539 141 522 141 505.2 141C488.3 141 471.7 141 454.8 141C438 141 421 141 404.2 141C387.3 141 370.7 141 353.8 141C337 141 320 141 303.2 141C286.3 141 269.7 141 252.8 141C236 141 219 141 202.2 141C185.3 141 168.7 141 151.8 141C135 141 118 141 101.2 141C84.3 141 67.7 141 50.8 141C34 141 17 141 8.5 141L0 141Z" fill="#c62368"></path>
</svg>