<svg id="visual" viewBox="0 0 960 140" width="960" height="140" xmlns="http://www.w3.org/2000/svg" xmlns:xlink="http://www.w3.org/1999/xlink" version="1.1"><rect x="0" y="0" width="960" height="140" fill="#8ce99a"></rect><path d="M0 108L8.5 111.7C17 115.3 34 122.7 50.8 109.2C67.7 95.7 84.3 61.3 101.2 51.5C118 41.7 135 56.3 151.8 71.7C168.7 87 185.3 103 202.2 102.5C219 102 236 85 252.8 86.7C269.7 88.3 286.3 108.7 303.2 111.5C320 114.3 337 99.7 353.8 87.8C370.7 76 387.3 67 404.2 57.7C421 48.3 438 38.7 454.8 40.3C471.7 42 488.3 55 505.2 60.5C522 66 539 64 555.8 70C572.7 76 589.3 90 606.2 100.7C623 111.3 640 118.7 656.8 123.3C673.7 128 690.3 130 707.2 114.7C724 99.3 741 66.7 757.8 53.2C774.7 39.7 791.3 45.3 808.2 57.3C825 69.3 842 87.7 858.8 94.8C875.7 102 892.3 98 909.2 99C926 100 943 106 951.5 109L960 112L960 0L951.5 0C943 0 926 0 909.2 0C892.3 0 875.7 0 858.8 0C842 0 825 0 808.2 0C791.3 0 774.7 0 757.8 0C741 0 724 0 707.2 0C690.3 0 673.7 0 656.8 0C640 0 623 0 606.2 0C589.3 0 572.7 0 555.8 0C539 0 522 0 505.2 0C488.3 0 471.7 0 454.8 0C438 0 421 0 404.2 0C387.3 0 370.7 0 353.8 0C337 0 320 0 303.2 0C286.3 0 269.7 0 252.8 0C236 0 219 0 202.2 0C185.3 0 168.7 0 151.8 0C135 0 118 0 101.2 0C84.3 0 67.7 0 50.8 0C34 0 17 0 8.5 0L0 0Z" fill="#c6e88b"></path><path d="M0 59L8.5 65.5C17 72 34 85 50.8 79C67.7 73 84.3 48 101.2 36.2C118 24.3 135 25.7 151.8 28.5C168.7 31.3 185.3 35.7 202.2 43C219 50.3 236 60.7 252.8 58.8C269.7 57 286.3 43 303.2 48.2C320 53.3 337 77.7 353.8 85C370.7 92.3 387.3 82.7 404.2 69.3C421 56 438 39 454.8 38C471.7 37 488.3 52 505.2 64.5C522 77 539 87 555.8 91.2C572.7 95.3 589.3 93.7 606.2 91.3C623 89 640 86 656.8 80.5C673.7 75 690.3 67 707.2 57.3C724 47.7 741 36.3 757.8 41.3C774.7 46.3 791.3 67.7 808.2 68.8C825 70 842 51 858.8 53.7C875.7 56.3 892.3 80.7 909.2 82.8C926 85 943 65 951.5 55L960 45L960 0L951.5 0C943 0 926 0 909.2 0C892.3 0 875.7 0 858.8 0C842 0 825 0 808.2 0C791.3 0 774.7 0 757.8 0C741 0 724 0 707.2 0C690.3 0 673.7 0 656.8 0C640 0 623 0 606.2 0C589.3 0 572.7 0 555.8 0C539 0 522 0 505.2 0C488.3 0 471.7 0 454.8 0C438 0 421 0 404.2 0C387.3 0 370.7 0 353.8 0C337 0 320 0 303.2 0C286.3 0 269.7 0 252.8 0C236 0 219 0 202.2 0C185.3 0 168.7 0 151.8 0C135 0 118 0 101.2 0C84.3 0 67.7 0 50.8 0C34 0 17 0 8.5 0L0 0Z" fill="#d5c560"></path><path d="M0 54L8.5 56.2C17 58.3 34 62.7 50.8 61.8C67.7 61 84.3 55 101.2 57.3C118 59.7 135 70.3 151.8 72.8C168.7 75.3 185.3 69.7 202.2 59.5C219 49.3 236 34.7 252.8 28.3C269.7 22 286.3 24 303.2 24.2C320 24.3 337 22.7 353.8 28.3C370.7 34 387.3 47 404.2 56.3C421 65.7 438 71.3 454.8 75.5C471.7 79.7 488.3 82.3 505.2 77C522 71.7 539 58.3 555.8 54.2C572.7 50 589.3 55 606.2 51.2C623 47.3 640 34.7 656.8 33C673.7 31.3 690.3 40.7 707.2 45.8C724 51 741 52 757.8 56C774.7 60 791.3 67 808.2 62.2C825 57.3 842 40.7 858.8 33C875.7 25.3 892.3 26.7 909.2 29.7C926 32.7 943 37.3 951.5 39.7L960 42L960 0L951.5 0C943 0 926 0 909.2 0C892.3 0 875.7 0 858.8 0C842 0 825 0 808.2 0C791.3 0 774.7 0 757.8 0C741 0 724 0 707.2 0C690.3 0 673.7 0 656.8 0C640 0 623 0 606.2 0C589.3 0 572.7 0 555.8 0C539 0 522 0 505.2 0C488.3 0 471.7 0 454.8 0C438 0 421 0 404.2 0C387.3 0 370.7 0 353.8 0C337 0 320 0 303.2 0C286.3 0 269.7 0 252.8 0C236 0 219 0 202.2 0C185.3 0 168.7 0 151.8 0C135 0 118 0 101.2 0C84.3 0 67.7 0 50.8 0C34 0 17 0 8.5 0L0 0Z" fill="#dfa049"></path><path d="M0 53L8.5 47.3C17 41.7 34 30.3 50.8 27.5C67.7 24.7 84.3 30.3 101.2 32.7C118 35 135 34 151.8 31.7C168.7 29.3 185.3 25.7 202.2 32.7C219 39.7 236 57.3 252.8 65.2C269.7 73 286.3 71 303.2 66.2C320 61.3 337 53.7 353.8 53.5C370.7 53.3 387.3 60.7 404.2 59.7C421 58.7 438 49.3 454.8 44.2C471.7 39 488.3 38 505.2 41.2C522 44.3 539 51.7 555.8 53.5C572.7 55.3 589.3 51.7 606.2 47.3C623 43 640 38 656.8 35.8C673.7 33.7 690.3 34.3 707.2 35.3C724 36.3 741 37.7 757.8 35.5C774.7 33.3 791.3 27.7 808.2 32.5C825 37.3 842 52.7 858.8 52.2C875.7 51.7 892.3 35.3 909.2 36.3C926 37.3 943 55.7 951.5 64.8L960 74L960 0L951.5 0C943 0 926 0 909.2 0C892.3 0 875.7 0 858.8 0C842 0 825 0 808.2 0C791.3 0 774.7 0 757.8 0C741 0 724 0 707.2 0C690.3 0 673.7 0 656.8 0C640 0 623 0 606.2 0C589.3 0 572.7 0 555.8 0C539 0 522 0 505.2 0C488.3 0 471.7 0 454.8 0C438 0 421 0 404.2 0C387.3 0 370.7 0 353.8 0C337 0 320 0 303.2 0C286.3 0 269.7 0 252.8 0C236 0 219 0 202.2 0C185.3 0 168.7 0 151.8 0C135 0 118 0 101.2 0C84.3 0 67.7 0 50.8 0C34 0 17 0 8.5 0L0 0Z" fill="#e37846"></path><path d="M0 40L8.5 34.7C17 29.3 34 18.7 50.8 17.8C67.7 17 84.3 26 101.2 32.8C118 39.7 135 44.3 151.8 43.5C168.7 42.7 185.3 36.3 202.2 32.7C219 29 236 28 252.8 29.2C269.7 30.3 286.3 33.7 303.2 31.5C320 29.3 337 21.7 353.8 16.5C370.7 11.3 387.3 8.7 404.2 14.3C421 20 438 34 454.8 35.7C471.7 37.3 488.3 26.7 505.2 27.3C522 28 539 40 555.8 42.5C572.7 45 589.3 38 606.2 35C623 32 640 33 656.8 31.3C673.7 29.7 690.3 25.3 707.2 28.7C724 32 741 43 757.8 46.5C774.7 50 791.3 46 808.2 45.5C825 45 842 48 858.8 42C875.7 36 892.3 21 909.2 18.2C926 15.3 943 24.7 951.5 29.3L960 34L960 0L951.5 0C943 0 926 0 909.2 0C892.3 0 875.7 0 858.8 0C842 0 825 0 808.2 0C791.3 0 774.7 0 757.8 0C741 0 724 0 707.2 0C690.3 0 673.7 0 656.8 0C640 0 623 0 606.2 0C589.3 0 572.7 0 555.8 0C539 0 522 0 505.2 0C488.3 0 471.7 0 454.8 0C438 0 421 0 404.2 0C387.3 0 370.7 0 353.8 0C337 0 320 0 303.2 0C286.3 0 269.7 0 252.8 0C236 0 219 0 202.2 0C185.3 0 168.7 0 151.8 0C135 0 118 0 101.2 0C84.3 0 67.7 0 50.8 0C34 0 17 0 8.5 0L0 0Z" fill="#dc4e53"></path><path d="M0 6L8.5 5.5C17 5 34 4 50.8 8.7C67.7 13.3 84.3 23.7 101.2 27.3C118 31 135 28 151.8 25.3C168.7 22.7 185.3 20.3 202.2 17.2C219 14 236 10 252.8 12.2C269.7 14.3 286.3 22.7 303.2 22.3C320 22 337 13 353.8 11.2C370.7 9.3 387.3 14.7 404.2 19.5C421 24.3 438 28.7 454.8 27.7C471.7 26.7 488.3 20.3 505.2 18C522 15.7 539 17.3 555.8 20.7C572.7 24 589.3 29 606.2 29.3C623 29.7 640 25.3 656.8 24C673.7 22.7 690.3 24.3 707.2 24.3C724 24.3 741 22.7 757.8 22.3C774.7 22 791.3 23 808.2 23C825 23 842 22 858.8 23.7C875.7 25.3 892.3 29.7 909.2 27C926 24.3 943 14.7 951.5 9.8L960 5L960 0L951.5 0C943 0 926 0 909.2 0C892.3 0 875.7 0 858.8 0C842 0 825 0 808.2 0C791.3 0 774.7 0 757.8 0C741 0 724 0 707.2 0C690.3 0 673.7 0 656.8 0C640 0 623 0 606.2 0C589.3 0 572.7 0 555.8 0C539 0 522 0 505.2 0C488.3 0 471.7 0 454.8 0C438 0 421 0 404.2 0C387.3 0 370.7 0 353.8 0C337 0 320 0 303.2 0C286.3 0 269.7 0 252.8 0C236 0 219 0 202.2 0C185.3 0 168.7 0 151.8 0C135 0 118 0 101.2 0C84.3 0 67.7 0 50.8 0C34 0 17 0 8.5 0L0 0Z" fill="#c62368"></path></svg>